<?xml version="1.0" standalone="no"?>
<!DOCTYPE svg PUBLIC "-//W3C//DTD SVG 20010904//EN"
 "http://www.w3.org/TR/2001/REC-SVG-20010904/DTD/svg10.dtd">
<svg version="1.0" xmlns="http://www.w3.org/2000/svg"
 width="40.000000pt" height="40.000000pt" viewBox="0 0 40.000000 40.000000"
 preserveAspectRatio="xMidYMid meet">
<metadata>
Created by potrace 1.16, written by Peter Selinger 2001-2019
</metadata>
<g transform="translate(0.000000,40.000000) scale(0.005000,-0.005000)"
fill="#000000" stroke="none">
<path d="M6375 5734 c-181 -108 -337 -201 -345 -208 -8 -7 -117 -73 -242 -146
-231 -136 -248 -150 -248 -209 0 -30 26 -13 -762 -477 l-206 -122 -39 41 c-86
90 -241 171 -388 202 -243 51 -538 -35 -700 -204 -21 -22 -44 -41 -50 -41 -5
0 -221 125 -479 278 -438 259 -470 279 -473 307 -2 17 -10 39 -17 50 -7 11
-115 81 -240 155 -125 74 -365 217 -534 318 -386 230 -396 235 -437 228 -44
-9 -61 -30 -159 -203 -71 -127 -86 -160 -86 -195 0 -24 7 -51 14 -60 11 -15
679 -418 693 -418 2 0 111 -63 242 -140 130 -77 247 -140 260 -140 12 0 35 7
51 15 29 15 30 14 505 -267 423 -250 476 -284 471 -302 -16 -56 -27 -189 -21
-256 30 -327 229 -595 525 -707 l85 -32 3 -560 2 -561 -32 -29 -33 -29 0 -707
0 -707 28 -24 c28 -24 31 -24 231 -24 189 0 205 1 229 20 50 40 51 44 43 764
-8 715 -7 705 -57 721 -18 6 -19 24 -19 573 l0 567 68 23 c134 47 289 161 376
281 119 162 179 388 155 583 -19 153 -27 134 86 201 701 418 857 507 875 497
47 -25 80 -12 327 133 739 432 900 529 916 548 36 44 24 92 -69 259 -99 179
-118 200 -177 200 -36 -1 -86 -27 -372 -196z m-2186 -1089 c350 -111 545 -517
417 -871 -74 -204 -248 -364 -456 -420 -84 -23 -233 -23 -319 0 -316 82 -532
400 -492 723 52 427 451 694 850 568z"/>
<path d="M3840 4549 c-147 -38 -291 -155 -357 -290 -219 -443 175 -931 653
-809 151 39 294 154 361 291 219 445 -178 934 -657 808z"/>
</g>
</svg>
