<svg width="606" height="643" viewBox="0 0 606 643" fill="none" xmlns="http://www.w3.org/2000/svg">
<g filter="url(#filter0_d)">
<circle cx="300.388" cy="294.538" r="253.388" fill="#F1F3F6"/>
</g>
<g filter="url(#filter1_d)">
<path d="M403.5 294.9C403.5 352.199 357.05 398.649 299.75 398.649C242.451 398.649 196.001 352.199 196.001 294.9C196.001 237.601 242.451 191.15 299.75 191.15C357.05 191.15 403.5 237.601 403.5 294.9Z" fill="#D7D7D7"/>
</g>
<g filter="url(#filter2_d)">
<path d="M9.97921 155.425L118.251 219.388C120.176 220.551 122.428 221.017 124.644 220.711C126.859 220.405 128.91 219.345 130.465 217.702L223.958 272.982C221.213 283.35 220.532 294.177 221.959 304.819C223.385 315.462 226.888 325.702 232.26 334.932C237.632 344.162 244.763 352.193 253.229 358.548C261.696 364.903 271.325 369.452 281.545 371.925L281.545 482.236C279.597 482.936 277.91 484.237 276.717 485.961C275.525 487.684 274.886 489.744 274.888 491.855L274.888 619.656C274.856 621.023 275.091 622.382 275.579 623.654C276.068 624.925 276.801 626.084 277.734 627.062C278.667 628.04 279.782 628.817 281.013 629.347C282.245 629.878 283.567 630.151 284.903 630.15L316.536 630.15C319.192 630.15 321.74 629.071 323.618 627.15C325.496 625.229 326.551 622.623 326.551 619.906L326.551 491.793C326.551 489.528 325.812 487.327 324.452 485.54C323.091 483.752 321.187 482.48 319.04 481.924L319.04 371.738C329.27 369.148 338.885 364.477 347.312 358.004C355.74 351.531 362.805 343.387 368.089 334.06C373.372 324.733 376.764 314.412 378.063 303.715C379.362 293.017 378.541 282.161 375.649 271.795L470.303 215.89C471.866 217.274 473.811 218.125 475.868 218.327C477.925 218.528 479.993 218.069 481.784 217.015L589.994 152.864C592.294 151.505 593.972 149.268 594.659 146.644C595.346 144.02 594.986 141.225 593.658 138.872L577.842 110.826C576.514 108.474 574.326 106.758 571.761 106.055C569.196 105.352 566.463 105.72 564.163 107.078L455.952 171.041C454.045 172.176 452.559 173.926 451.73 176.018C450.901 178.11 450.775 180.424 451.372 182.597L357.085 238.252C349.672 230.218 340.718 223.835 330.783 219.503C320.848 215.171 310.146 212.984 299.346 213.078C288.547 213.171 277.882 215.544 268.02 220.048C258.159 224.552 249.312 231.09 242.034 239.252L148.907 184.221C149.282 182.149 149.02 180.009 148.156 178.096C147.292 176.182 145.869 174.591 144.083 173.54L35.8106 109.702C33.5106 108.344 30.7775 107.976 28.2124 108.679C25.6472 109.381 23.4599 111.097 22.1315 113.45L6.31514 141.496C5.00679 143.843 4.65773 146.623 5.34395 149.232C6.03017 151.841 7.69619 154.067 9.97921 155.425ZM299.865 227.946C312.576 227.921 325.009 231.754 335.589 238.959C346.17 246.165 354.423 256.419 359.304 268.424C364.185 280.429 365.475 293.646 363.01 306.401C360.545 319.156 354.436 330.876 345.456 340.079C336.477 349.281 325.03 355.552 312.565 358.098C300.1 360.643 287.176 359.349 275.431 354.38C263.685 349.41 253.644 340.987 246.58 330.178C239.515 319.369 235.744 306.66 235.744 293.658C235.76 276.257 242.517 259.571 254.535 247.255C266.553 234.938 282.853 227.995 299.865 227.946Z" fill="black"/>
</g>
<path d="M299.803 354.15C311.313 354.15 322.565 350.666 332.135 344.138C341.706 337.61 349.165 328.331 353.57 317.476C357.975 306.62 359.127 294.675 356.882 283.15C354.636 271.626 349.093 261.04 340.954 252.732C332.815 244.423 322.446 238.765 311.156 236.473C299.867 234.18 288.166 235.357 277.532 239.853C266.897 244.35 257.808 251.965 251.413 261.734C245.019 271.504 241.605 282.991 241.605 294.741C241.621 310.492 247.758 325.594 258.668 336.732C269.579 347.87 284.373 354.134 299.803 354.15Z" fill="black"/>
<defs>
<filter id="filter0_d" x="36" y="41.1504" width="528.776" height="531.776" filterUnits="userSpaceOnUse" color-interpolation-filters="sRGB">
<feFlood flood-opacity="0" result="BackgroundImageFix"/>
<feColorMatrix in="SourceAlpha" type="matrix" values="0 0 0 0 0 0 0 0 0 0 0 0 0 0 0 0 0 0 127 0" result="hardAlpha"/>
<feMorphology radius="7" operator="erode" in="SourceAlpha" result="effect1_dropShadow"/>
<feOffset dy="14"/>
<feGaussianBlur stdDeviation="9"/>
<feColorMatrix type="matrix" values="0 0 0 0 0 0 0 0 0 0 0 0 0 0 0 0 0 0 0.25 0"/>
<feBlend mode="normal" in2="BackgroundImageFix" result="effect1_dropShadow"/>
<feBlend mode="normal" in="SourceGraphic" in2="effect1_dropShadow" result="shape"/>
</filter>
<filter id="filter1_d" x="192.001" y="191.15" width="215.499" height="215.499" filterUnits="userSpaceOnUse" color-interpolation-filters="sRGB">
<feFlood flood-opacity="0" result="BackgroundImageFix"/>
<feColorMatrix in="SourceAlpha" type="matrix" values="0 0 0 0 0 0 0 0 0 0 0 0 0 0 0 0 0 0 127 0" result="hardAlpha"/>
<feOffset dy="4"/>
<feGaussianBlur stdDeviation="2"/>
<feColorMatrix type="matrix" values="0 0 0 0 0 0 0 0 0 0 0 0 0 0 0 0 0 0 0.25 0"/>
<feBlend mode="normal" in2="BackgroundImageFix" result="effect1_dropShadow"/>
<feBlend mode="normal" in="SourceGraphic" in2="effect1_dropShadow" result="shape"/>
</filter>
<filter id="filter2_d" x="0" y="101.706" width="606" height="540.444" filterUnits="userSpaceOnUse" color-interpolation-filters="sRGB">
<feFlood flood-opacity="0" result="BackgroundImageFix"/>
<feColorMatrix in="SourceAlpha" type="matrix" values="0 0 0 0 0 0 0 0 0 0 0 0 0 0 0 0 0 0 127 0" result="hardAlpha"/>
<feOffset dx="3" dy="4"/>
<feGaussianBlur stdDeviation="4"/>
<feColorMatrix type="matrix" values="0 0 0 0 0 0 0 0 0 0 0 0 0 0 0 0 0 0 0.5 0"/>
<feBlend mode="normal" in2="BackgroundImageFix" result="effect1_dropShadow"/>
<feBlend mode="normal" in="SourceGraphic" in2="effect1_dropShadow" result="shape"/>
</filter>
</defs>
</svg>
