<?xml version="1.0" standalone="no"?>
<!DOCTYPE svg PUBLIC "-//W3C//DTD SVG 20010904//EN"
 "http://www.w3.org/TR/2001/REC-SVG-20010904/DTD/svg10.dtd">
<svg version="1.0" xmlns="http://www.w3.org/2000/svg"
 width="800.000000pt" height="800.000000pt" viewBox="0 0 800.000000 800.000000"
 preserveAspectRatio="xMidYMid meet">

<g transform="translate(0.000000,800.000000) scale(0.100000,-0.100000)"
fill="#000000" stroke="none">
<path d="M6690 5911 c-32 -17 -197 -114 -907 -533 -226 -134 -243 -148 -243
-207 0 -30 26 -13 -762 -477 l-206 -122 -39 41 c-86 90 -241 171 -388 202
-243 51 -538 -35 -700 -204 -21 -22 -44 -41 -50 -41 -5 0 -221 125 -479 278
-439 259 -470 279 -473 307 -2 17 -11 40 -21 53 -9 12 -273 173 -587 357 -422
249 -577 335 -601 335 -17 0 -43 -9 -57 -20 -32 -26 -197 -313 -204 -356 -11
-69 -12 -68 599 -429 315 -187 585 -341 599 -343 15 -2 40 3 57 12 l31 16 476
-282 c423 -250 476 -284 471 -302 -16 -56 -27 -189 -21 -256 30 -327 229 -595
525 -707 l85 -32 3 -560 2 -561 -32 -29 -33 -29 0 -702 0 -702 33 -29 32 -29
191 0 c207 0 235 6 257 55 9 19 12 202 12 714 l0 688 -25 27 c-13 14 -29 26
-35 26 -7 0 -10 179 -10 568 l0 567 68 23 c134 47 289 161 376 281 119 162
179 388 155 583 -19 153 -27 134 86 201 726 433 857 507 877 496 49 -26 83 -9
648 325 305 181 565 339 578 350 12 12 25 39 29 59 5 33 -4 54 -81 195 -48 86
-101 169 -117 185 -35 32 -70 35 -119 8z m-2501 -1266 c350 -111 545 -517 417
-871 -74 -204 -248 -364 -456 -420 -84 -23 -233 -23 -319 0 -316 82 -532 400
-492 723 52 427 451 694 850 568z"/>
<path d="M3840 4549 c-147 -38 -291 -155 -357 -290 -219 -443 175 -931 653
-809 151 39 294 154 361 291 219 445 -178 934 -657 808z"/>
</g>
</svg>
